<svg id="Layer_1" data-name="Layer 1" xmlns="http://www.w3.org/2000/svg" viewBox="0 0 100 71.552"><defs><style>.cls-1{fill:#fff;}.cls-2{fill:none;}</style></defs><title>new1</title><path d="M97.967,68.455H2.033V60.114l3.494-.207a5.084,5.084,0,0,0,2.22-.4,29.208,29.208,0,0,0,8.058-9.586L37.319,3.1h5.2l8.522,19.337L59.931,3.1h5.2L86.146,50.772c1.92,4.3,4.67,8.121,5.674,8.8.516.258.664.328,2.433.328h3.714ZM17.054,61.027l5.03,2.915h47.07L83.39,61.027a52.505,52.505,0,0,1-4.034-7.242L62.447,15.416l-20.409,43.6-.977-3.255,9.147-16.8L39.835,15.414l-17.277,37.6A35.629,35.629,0,0,1,17.054,61.027Zm74.769-1.452.019.012.028.013Z"/><path class="cls-1" d="M96.492,66.979H3.509V61.505l2.106-.125a5.8,5.8,0,0,0,2.968-.655,30.537,30.537,0,0,0,8.564-10.189L38.266,4.573h3.3l9.457,21.459L60.877,4.573h3.295L84.8,51.368c2.209,4.946,5.27,9,6.324,9.5l.033.016c.709.355.974.487,3.1.487h2.239ZM13.513,62.5l8.571,1.626H71.852L86.371,62.5a42.237,42.237,0,0,1-5.666-9.32L62.474,11.818,41.387,57.43l-.326-2.419L50.27,35.942,39.863,11.817,21.217,52.4A36.131,36.131,0,0,1,13.513,62.5Z"/><polygon class="cls-1" points="56 42.937 54.831 40.362 67.139 40.362 68.265 42.937 56 42.937"/><polygon class="cls-1" points="24.413 42.937 25.54 40.362 44.528 40.362 45.654 42.937 24.413 42.937"/><polygon class="cls-2" points="48.151 40.362 47.025 42.937 68.265 42.937 67.139 40.362 48.151 40.362"/><path class="cls-2" d="M40.186,55.971A36.439,36.439,0,0,1,33.91,62.89v.725h6.356a24.018,24.018,0,0,1-.321-3.38,22.109,22.109,0,0,1,.4-4.1Z"/><polygon class="cls-2" points="57.967 19.282 48.634 39.397 66.818 39.397 57.967 19.282"/><path class="cls-2" d="M79.207,53.4,61.346,12.765h-.322l-1.77,3.54a10.248,10.248,0,0,0-.724,1.609c0,.4.322.724.966,2.253L72.771,50.178C73.9,52.672,74.7,54.362,74.7,56.534a8.788,8.788,0,0,1-3.7,6.92v.161H86.69v-.161C83.311,61.2,81.058,57.58,79.207,53.4Z"/><path d="M90.15,62.89c-2.012-.965-5.391-6.115-7.4-10.62L62.714,6.811h-.4L41.8,51.465a32.681,32.681,0,0,1-9.333,11.1c-1.287.885-4.281.965-5.649,1.046v1.126H49.921V63.615c-3.862,0-4.908-.081-6.678-2.5a8.581,8.581,0,0,1-1.528-4.988c0-1.288,1.126-4.345,2.011-6.276L46.461,43.9H68.668L71.4,49.937c.8,1.689,2.173,4.505,2.173,6.275a7.622,7.622,0,0,1-1.61,4.586c-1.85,2.575-3.137,2.817-7.16,2.817v1.126H94.253V63.615C91.92,63.615,91.276,63.454,90.15,62.89Zm-49.884.725H33.91V62.89a36.439,36.439,0,0,0,6.276-6.919l.161.161a22.109,22.109,0,0,0-.4,4.1A24.018,24.018,0,0,0,40.266,63.615Zm17.7-44.333L66.818,39.4H48.634ZM47.025,42.937l1.126-2.575H67.139l1.126,2.575ZM86.69,63.615H71v-.161a8.788,8.788,0,0,0,3.7-6.92c0-2.172-.8-3.862-1.931-6.356L59.5,20.167c-.644-1.529-.966-1.85-.966-2.253a10.248,10.248,0,0,1,.724-1.609l1.77-3.54h.322L79.207,53.4c1.851,4.184,4.1,7.8,7.483,10.058Z"/><path class="cls-1" d="M86.69,63.615H71v-.161a8.788,8.788,0,0,0,3.7-6.92c0-2.172-.8-3.862-1.931-6.356L59.5,20.167c-.644-1.529-.966-1.85-.966-2.253a10.248,10.248,0,0,1,.724-1.609l1.77-3.54h.322L79.207,53.4c1.851,4.184,4.1,7.8,7.483,10.058Z"/><path class="cls-1" d="M17.655,63.615H11.3V62.89a36.473,36.473,0,0,0,6.276-6.919l.16.161a22.2,22.2,0,0,0-.4,4.1A24.02,24.02,0,0,0,17.655,63.615Z"/><polygon class="cls-2" points="25.54 40.362 24.413 42.937 45.654 42.937 44.528 40.362 25.54 40.362"/><path class="cls-2" d="M17.575,55.971A36.473,36.473,0,0,1,11.3,62.89v.725h6.356a24.02,24.02,0,0,1-.322-3.38,22.2,22.2,0,0,1,.4-4.1Z"/><polygon class="cls-2" points="35.356 19.282 26.022 39.397 44.206 39.397 35.356 19.282"/><path class="cls-2" d="M56.6,53.4,38.735,12.765h-.322l-1.77,3.54a10.248,10.248,0,0,0-.724,1.609c0,.4.322.724.965,2.253L50.16,50.178c1.126,2.494,1.931,4.184,1.931,6.356a8.785,8.785,0,0,1-3.7,6.92v.161H64.079v-.161C60.7,61.2,58.447,57.58,56.6,53.4Z"/><path d="M67.539,62.89c-2.012-.965-5.391-6.115-7.4-10.62L40.1,6.811h-.4L19.183,51.465a32.658,32.658,0,0,1-9.333,11.1,7.625,7.625,0,0,1-4.1,1.046v1.126H27.31V63.615c-3.862,0-4.908-.081-6.678-2.5A8.584,8.584,0,0,1,19.1,56.132c0-1.288,1.127-4.345,2.011-6.276L23.85,43.9H46.056l2.736,6.035c.8,1.689,2.172,4.505,2.172,6.275A7.619,7.619,0,0,1,49.355,60.8c-1.85,2.575-3.138,2.817-7.161,2.817v1.126H71.642V63.615C69.308,63.615,68.665,63.454,67.539,62.89Zm-49.884.725H11.3V62.89a36.473,36.473,0,0,0,6.276-6.919l.16.161a22.2,22.2,0,0,0-.4,4.1A24.02,24.02,0,0,0,17.655,63.615Zm17.7-44.333L44.206,39.4H26.022ZM24.413,42.937l1.127-2.575H44.528l1.126,2.575ZM64.079,63.615H48.39v-.161a8.785,8.785,0,0,0,3.7-6.92c0-2.172-.8-3.862-1.931-6.356L36.884,20.167c-.643-1.529-.965-1.85-.965-2.253a10.248,10.248,0,0,1,.724-1.609l1.77-3.54h.322L56.6,53.4c1.851,4.184,4.1,7.8,7.483,10.058Z"/><path class="cls-1" d="M64.079,63.615H48.39v-.161a8.785,8.785,0,0,0,3.7-6.92c0-2.172-.8-3.862-1.931-6.356L36.884,20.167c-.643-1.529-.965-1.85-.965-2.253a10.248,10.248,0,0,1,.724-1.609l1.77-3.54h.322L56.6,53.4c1.851,4.184,4.1,7.8,7.483,10.058Z"/><path class="cls-1" d="M40.266,63.615H33.91V62.89a36.439,36.439,0,0,0,6.276-6.919l.161.161a22.109,22.109,0,0,0-.4,4.1A24.018,24.018,0,0,0,40.266,63.615Z"/></svg>